<svg width="44" height="44" viewBox="0 0 44 44" fill="none" xmlns="http://www.w3.org/2000/svg">
<g clip-path="url(#clip0_1113_359)">
<rect width="44" height="44" rx="4.31373" fill="black"/>
<path fill-rule="evenodd" clip-rule="evenodd" d="M12.54 28.0618C15.8877 28.0618 18.6017 25.3478 18.6017 22C18.6017 18.6522 15.8877 15.9383 12.54 15.9383C9.19215 15.9383 6.47823 18.6522 6.47823 22C6.47823 25.3478 9.19215 28.0618 12.54 28.0618ZM12.54 32.0786C18.1062 32.0786 22.6185 27.5662 22.6185 22C22.6185 16.4338 18.1062 11.9215 12.54 11.9215C6.97374 11.9215 2.46143 16.4338 2.46143 22C2.46143 27.5662 6.97374 32.0786 12.54 32.0786Z" fill="white"/>
<path fill-rule="evenodd" clip-rule="evenodd" d="M12.5398 36.5334C20.5664 36.5334 27.0733 30.0265 27.0733 21.9999C27.0733 13.9732 20.5664 7.46633 12.5398 7.46633C4.51312 7.46633 -1.99376 13.9732 -1.99376 21.9999C-1.99376 30.0265 4.51312 36.5334 12.5398 36.5334ZM12.5398 40.5502C22.7848 40.5502 31.0901 32.2449 31.0901 21.9999C31.0901 11.7548 22.7848 3.44952 12.5398 3.44952C2.2947 3.44952 -6.01056 11.7548 -6.01056 21.9999C-6.01056 32.2449 2.2947 40.5502 12.5398 40.5502Z" fill="white"/>
<path fill-rule="evenodd" clip-rule="evenodd" d="M12.5398 44.7133C25.0839 44.7133 35.253 34.5442 35.253 22.0001C35.253 9.45593 25.0839 -0.713116 12.5398 -0.713116C-0.00439835 -0.713116 -10.1734 9.45593 -10.1734 22.0001C-10.1734 34.5442 -0.00439835 44.7133 12.5398 44.7133ZM12.5398 48.7301C27.3023 48.7301 39.2698 36.7627 39.2698 22.0001C39.2698 7.23751 27.3023 -4.72992 12.5398 -4.72992C-2.22282 -4.72992 -14.1902 7.23751 -14.1902 22.0001C-14.1902 36.7627 -2.22282 48.7301 12.5398 48.7301Z" fill="white"/>
</g>
<defs>
<clipPath id="clip0_1113_359">
<rect width="44" height="44" rx="4.31373" fill="white"/>
</clipPath>
</defs>
</svg>
