<svg width="58" height="54" viewBox="0 0 58 54" fill="none" xmlns="http://www.w3.org/2000/svg">
<g id="Group 2 Copy">
<g id="Group">
<mask id="mask0" mask-type="alpha" maskUnits="userSpaceOnUse" x="31" y="0" width="27" height="54">
<path id="Mask" fill-rule="evenodd" clip-rule="evenodd" d="M57.8513 0.911377H31.2307V4.42788C39.4939 8.33352 45.2106 16.7446 45.2106 26.4909C45.2106 36.2372 39.4939 44.6483 31.2307 48.5539V53.1115H57.8513V0.911377Z" fill="white"/>
</mask>
<g mask="url(#mask0)">
<g id="Group_2">
<path id="Path" fill-rule="evenodd" clip-rule="evenodd" d="M48.7795 5.07553H51.0103V47.9064H48.7795V5.07553Z" fill="#C268D3"/>
<path id="Path_2" fill-rule="evenodd" clip-rule="evenodd" d="M44.3181 5.07553H46.5489V47.9064H44.3181V5.07553Z" fill="#C268D3"/>
<path id="Path_3" fill-rule="evenodd" clip-rule="evenodd" d="M40.0054 5.07553H42.2361V47.9064H40.0054V5.07553Z" fill="#C268D3"/>
<path id="Path_4" fill-rule="evenodd" clip-rule="evenodd" d="M35.5437 5.07574H37.7745V47.9066H35.5437V5.07574Z" fill="#C268D3"/>
</g>
</g>
</g>
<path id="Combined Shape" fill-rule="evenodd" clip-rule="evenodd" d="M12.8613 17.9373V35.0864H21.7663C23.9893 35.0864 25.8848 34.2528 27.4529 32.5855C29.0209 30.9182 29.8049 28.8739 29.8049 26.4523C29.8049 24.1102 29.0159 22.1055 27.438 20.4383C25.86 18.771 23.9695 17.9373 21.7663 17.9373H12.8613ZM21.7668 32.9427H15.0055V20.0809H21.7668C23.3746 20.0809 24.7491 20.7061 25.8904 21.9566C27.0316 23.2071 27.6023 24.7056 27.6023 26.4523C27.6023 28.2784 27.0316 29.8166 25.8904 31.0671C24.7491 32.3175 23.3746 32.9427 21.7668 32.9427Z" fill="#C268D3"/>
<path id="Combined Shape_2" fill-rule="evenodd" clip-rule="evenodd" d="M8.57446 13.65V39.3737H21.7667C25.1806 39.3737 28.1083 38.1183 30.5496 35.6074C32.991 33.0966 34.2117 30.0449 34.2117 26.4523C34.2117 22.9391 32.9861 19.9271 30.5348 17.4163C28.0835 14.9054 25.1608 13.65 21.7667 13.65H8.57446ZM21.7664 37.2301H10.7178V15.7937H21.7664C24.5651 15.7937 26.9717 16.8357 28.9863 18.9198C31.0009 21.0039 32.0082 23.5148 32.0082 26.4523C32.0082 29.4495 31.0059 31.995 29.0012 34.089C26.9965 36.1831 24.5849 37.2301 21.7664 37.2301Z" fill="#AC5CD7"/>
<path id="Combined Shape_3" fill-rule="evenodd" clip-rule="evenodd" d="M4.28711 9.36276V43.6609H21.7666C24.7637 43.6609 27.5574 42.8968 30.1476 41.3684C32.7379 39.8401 34.7971 37.7511 36.3255 35.1013C37.8538 32.4515 38.618 29.5685 38.618 26.4523C38.618 23.3758 37.8538 20.5226 36.3255 17.8926C34.7971 15.2627 32.7379 13.1836 30.1476 11.6553C27.5574 10.1269 24.7637 9.36276 21.7666 9.36276H4.28711ZM21.7665 41.5173H6.43066V11.5064H21.7665C24.3667 11.5064 26.7931 12.1763 29.0459 13.5161C31.2988 14.8559 33.0901 16.6769 34.4199 18.9794C35.7498 21.2818 36.4147 23.7728 36.4147 26.4523C36.4147 29.1914 35.7498 31.7221 34.4199 34.0444C33.0901 36.3667 31.3037 38.1927 29.0608 39.5226C26.8179 40.8524 24.3865 41.5173 21.7665 41.5173Z" fill="#954FDB"/>
<path id="Combined Shape_4" fill-rule="evenodd" clip-rule="evenodd" d="M0 47.9483H21.7668C24.5853 47.9483 27.3045 47.3826 29.9245 46.2512C32.5445 45.1198 34.8122 43.5965 36.7276 41.6811C38.643 39.7657 40.1713 37.4782 41.3126 34.8185C42.4539 32.1588 43.0245 29.3701 43.0245 26.4523C43.0245 22.6017 42.0569 19.034 40.1217 15.7491C38.1864 12.4641 35.5863 9.86399 32.3212 7.9486C29.0561 6.03321 25.538 5.07553 21.7668 5.07553H0V47.9483ZM21.7663 45.6559H2.14322V7.21915H21.7663C25.1406 7.21915 28.2915 8.07428 31.2192 9.78457C34.1469 11.4949 36.479 13.8279 38.2158 16.7838C39.9525 19.7398 40.8209 22.9379 40.8209 26.3782C40.8209 29.8779 39.9525 33.1105 38.2158 36.0764C36.479 39.0422 34.1518 41.3802 31.2341 43.0905C28.3163 44.8008 25.1605 45.6559 21.7663 45.6559Z" fill="#8244DF"/>
</g>
</svg>
