<svg width="212" height="42" viewBox="0 0 212 42" fill="none" xmlns="http://www.w3.org/2000/svg">
<rect x="36.5115" y="36.8315" width="175.482" height="4.17151" fill="#FFEA66"/>
<path d="M56.3024 19.1218C56.3127 17.5599 57.217 16.6145 58.6042 16.6145C60.0531 16.6145 60.8751 17.5599 60.8648 19.1218V28H66.537V17.9298C66.5473 14.4772 64.3688 12.011 61.0292 12.011C58.6967 12.011 56.9703 13.203 56.2613 15.217H56.0969V6.95539H50.6302V28H56.3024V19.1218ZM76.9411 28.2877C82.079 28.2877 85.1206 24.9995 85.1206 20.1494C85.1206 15.2993 82.079 12.011 76.9411 12.011C71.8033 12.011 68.7617 15.2993 68.7617 20.1494C68.7617 24.9995 71.8033 28.2877 76.9411 28.2877ZM76.9822 24.0952C75.4614 24.0952 74.5572 22.5847 74.5572 20.1083C74.5572 17.6318 75.4614 16.1213 76.9822 16.1213C78.4208 16.1213 79.3251 17.6318 79.3251 20.1083C79.3251 22.5847 78.4208 24.0952 76.9822 24.0952ZM87.4223 28H93.0945V18.793C93.0945 17.416 93.8138 16.5734 94.9852 16.5734C96.1567 16.5734 96.9171 17.416 96.9171 18.793V28H102.343V18.793C102.343 17.416 103.062 16.5734 104.233 16.5734C105.405 16.5734 106.165 17.416 106.165 18.793V28H111.837V17.3544C111.837 14.1175 109.762 12.011 106.741 12.011C104.398 12.011 102.507 13.2852 101.973 15.217H101.808C101.479 13.2852 99.7121 12.011 97.4925 12.011C95.3038 12.011 93.6289 13.2441 92.9712 15.217H92.8068V12.2165H87.4223V28ZM122.198 28.2877C126.575 28.2877 129.391 26.1915 129.925 22.9033H124.746C124.417 23.7972 123.482 24.3008 122.321 24.3008C120.636 24.3008 119.649 23.191 119.649 21.6702V21.4236H129.925V20.1083C129.925 15.0835 126.842 12.011 122.075 12.011C117.183 12.011 114.059 15.2581 114.059 20.1494C114.059 25.2564 117.142 28.2877 122.198 28.2877ZM119.649 18.2998C119.68 16.9331 120.811 15.998 122.198 15.998C123.606 15.998 124.674 16.9434 124.705 18.2998H119.649ZM132.158 28H137.789V25.4105H137.912C138.57 27.0135 140.09 28.2055 142.31 28.2055C145.68 28.2055 148.516 25.5749 148.516 20.1083C148.516 14.395 145.475 12.011 142.351 12.011C140.008 12.011 138.528 13.3674 137.912 14.9704H137.83V6.95539H132.158V28ZM137.706 20.1083C137.706 17.7654 138.652 16.3679 140.214 16.3679C141.776 16.3679 142.68 17.7654 142.68 20.1083C142.68 22.4511 141.776 23.8486 140.214 23.8486C138.652 23.8486 137.706 22.41 137.706 20.1083ZM161.125 21.0947C161.135 22.6566 160.231 23.602 158.823 23.602C157.395 23.602 156.573 22.6566 156.562 21.0947V12.2165H150.89V22.2867C150.9 25.7393 153.079 28.2055 156.398 28.2055C158.751 28.2055 160.56 27.0135 161.248 24.9995H161.412V28H166.797V12.2165H161.125V21.0947ZM169.846 28H183.698V23.6842H177.162V23.602L183.451 15.6692V12.2165H170.093V16.5323H176.751V16.6145L169.846 24.8762V28ZM186.999 28H200.851V23.6842H194.315V23.602L200.604 15.6692V12.2165H187.245V16.5323H193.904V16.6145L186.999 24.8762V28Z" fill="white"/>
<path d="M0 20.3785C0 9.12378 9.12377 0 20.3785 0C31.6333 0 40.757 9.12377 40.757 20.3785V39.536C40.757 40.3667 40.0836 41.0401 39.2529 41.0401H1.50408C0.6734 41.0401 0 40.3667 0 39.536V20.3785Z" fill="#FFCE3A"/>
<circle cx="20.3786" cy="20.6615" r="15.2839" fill="url(#paint0_linear)"/>
<circle cx="20.3784" cy="20.6616" r="12.7366" fill="url(#paint1_linear)"/>
<circle cx="20.3785" cy="20.6616" r="10.4723" fill="#1B1E1F"/>
<rect x="210.012" y="30.5678" width="1.98124" height="10.4723" fill="white"/>
<defs>
<linearGradient id="paint0_linear" x1="20.3786" y1="5.37766" x2="20.3786" y2="35.9454" gradientUnits="userSpaceOnUse">
<stop stop-color="#DEA700"/>
<stop offset="1" stop-color="#FFC518"/>
</linearGradient>
<linearGradient id="paint1_linear" x1="20.3784" y1="7.92499" x2="20.3784" y2="33.3981" gradientUnits="userSpaceOnUse">
<stop stop-color="#FFC518"/>
<stop offset="1" stop-color="#DEA700"/>
</linearGradient>
</defs>
</svg>
