<svg width="53" height="53" viewBox="0 0 53 53" fill="none" xmlns="http://www.w3.org/2000/svg">
<g clip-path="url(#clip0)">
<path d="M45.2313 1.25561C44.9774 0.693788 44.4707 0.349615 43.7767 0.42927C43.1776 0.496996 29.0181 2.19359 23.6782 11.5921C21.7333 15.0142 21.046 19.2998 21.6338 24.3278L30.1081 34.5365C30.1844 34.5293 30.2613 34.5165 30.3371 34.4966C35.5718 33.1224 42.5258 30.2272 45.9307 24.2348C51.2712 14.8392 45.4815 1.80661 45.2313 1.25561Z" fill="#70DA40"/>
<path d="M45.931 24.2348C51.2711 14.8392 45.4814 1.80659 45.2312 1.25559C45.1085 0.984132 44.9259 0.764078 44.6922 0.617284L27.3264 31.1858L30.108 34.5365C30.1843 34.5293 30.2612 34.5164 30.337 34.4966C35.5717 33.1224 42.5257 30.2271 45.931 24.2348Z" fill="#56C225"/>
<path d="M39.0272 10.5896C38.3462 10.2035 37.4759 10.4404 37.089 11.1241L31.7609 20.5018L30.5364 16.0568C30.3278 15.2981 29.5407 14.848 28.7883 15.0641C28.031 15.2724 27.5864 16.0549 27.7959 16.8121L29.7743 23.9981L27.0866 28.7284C26.6996 29.411 26.9377 30.2782 27.6212 30.6671C27.8837 30.8167 28.1751 30.8729 28.4556 30.8464C28.902 30.8042 29.322 30.5526 29.5598 30.1325L32.2464 25.4038L39.4331 23.4246C40.1901 23.2166 40.635 22.4341 40.4255 21.6769C40.2171 20.9185 39.4326 20.4693 38.6775 20.6845L34.2324 21.9083L39.5617 12.5282C39.9492 11.8456 39.7111 10.9784 39.0272 10.5896Z" fill="#56C225"/>
<path d="M27.6214 30.667C27.8836 30.8163 28.1749 30.8725 28.4555 30.846C28.9019 30.8039 29.3218 30.5522 29.5597 30.1325L32.2467 25.4037L39.433 23.4246C40.19 23.2166 40.6349 22.4337 40.4254 21.6769C40.2173 20.9181 39.4329 20.4692 38.6777 20.6841L34.2323 21.9083L39.5616 12.5282C39.9491 11.8456 39.711 10.9784 39.0271 10.5896L27.6214 30.667Z" fill="#49A520"/>
<path d="M29.6301 48.4316L31.8096 48.6517C32.113 47.0237 32.8206 42.7199 32.3768 38.02C32.0079 34.1131 30.8374 29.8817 28.0092 26.5496C21.0057 18.3276 6.78693 19.2986 6.19231 19.3547C5.60304 19.4676 5.03783 19.8353 4.89601 20.4486C4.77953 21.0309 1.51939 34.9068 8.52526 43.1571C14.6938 50.4013 26.5103 50.6089 29.6122 50.4875L29.6301 48.4316Z" fill="#90E36A"/>
<path d="M5.42648 19.6777C5.16919 19.8638 4.97175 20.1205 4.89599 20.4486C4.77951 21.0309 1.51937 34.9068 8.52524 43.1572C14.6937 50.4013 26.5103 50.6089 29.6122 50.4875L29.6297 48.4744L5.42648 19.6777Z" fill="#70DA40"/>
<path d="M31.8095 48.6517C31.7311 49.0307 31.6703 49.2934 31.6473 49.3528C31.5024 49.9378 31.002 50.3849 30.379 50.4437C30.379 50.4437 30.379 50.4437 30.351 50.4464C30.2942 50.4517 30.0395 50.4758 29.6121 50.4875L22.1783 41.6397L14.751 41.0269C13.9757 40.9859 13.3683 40.3005 13.4377 39.5226C13.5044 38.7166 14.1925 38.1373 14.9704 38.2067L19.5748 38.5719L12.5716 30.3496C12.0601 29.7697 12.1468 28.8759 12.727 28.3641C13.3353 27.8495 14.2264 27.9082 14.7409 28.5164L21.7442 36.7388L22.1094 32.134C22.1788 31.3561 22.8385 30.7798 23.6444 30.8465C24.4197 30.8875 24.9987 31.5756 24.9293 32.3531L24.3476 39.8065L31.8095 48.6517Z" fill="#70DA40"/>
<path d="M12.7268 28.3641C12.1466 28.8759 12.0599 29.7697 12.5713 30.3496L19.5745 38.5716L14.9702 38.2067C14.1922 38.1373 13.5042 38.7167 13.4375 39.5226C13.3681 40.3006 13.9754 40.9856 14.7507 41.0266L22.178 41.6393L29.6119 50.4875C30.0392 50.4758 30.2943 50.4517 30.3507 50.4464L30.3787 50.4437C30.6361 50.4195 30.8714 50.3281 31.0707 50.1891L12.7268 28.3641Z" fill="#56C225"/>
</g>
<defs>
<clipPath id="clip0">
<rect width="48.5339" height="48.5339" fill="white" transform="translate(0 4.56226) rotate(-5.39384)"/>
</clipPath>
</defs>
</svg>
