<svg width="86" height="69" viewBox="0 0 86 69" fill="none" xmlns="http://www.w3.org/2000/svg">
<path d="M31.7508 0L47.4598 26.2187L58.4094 9.48834L86 51.1297L66.0264 55.2801C65.8013 55.0399 65.5816 54.7667 65.372 54.4638C65.2854 54.3386 65.3517 54.1366 65.4797 54.1366H66.9247C66.3312 53.8435 65.7181 53.2893 65.1843 52.5341C65.1488 52.4838 65.1135 52.4326 65.0787 52.3804C64.5597 51.6056 64.2203 50.7751 64.0613 50.0275L64.0604 50.0233C63.9017 50.772 63.562 51.6042 63.0421 52.3804C62.7234 52.8568 62.3728 53.26 62.0127 53.5765C61.7053 53.2526 61.4044 52.8695 61.12 52.4347C61.0906 52.3897 61.0614 52.3442 61.0323 52.2982C60.9509 52.1688 61.0209 51.9714 61.1481 51.9714H62.7949C62.172 51.6395 61.5301 51.0313 60.9615 50.2095C60.8729 50.0813 60.9407 49.8746 61.0718 49.8746H62.5507C61.9433 49.5747 61.3158 49.0074 60.7695 48.2345C60.733 48.183 60.697 48.1305 60.6613 48.0772C60.1302 47.2842 59.7828 46.4341 59.62 45.6689L59.6199 45.6685L59.6191 45.6647C59.4567 46.431 59.109 47.2827 58.5769 48.0772C58.5086 48.1793 58.4388 48.2782 58.3678 48.3736C57.8879 47.8897 57.4185 47.2934 56.9821 46.6011C56.8773 46.4354 56.9669 46.1817 57.1305 46.1817H59.2442C58.4447 45.7558 57.6203 44.9754 56.8906 43.9204C56.7771 43.7561 56.8644 43.4909 57.0322 43.4909H58.9304C58.0991 43.0798 57.238 42.279 56.5056 41.1838C55.8227 40.1636 55.3766 39.0711 55.168 38.0875C54.9593 39.0711 54.5132 40.1636 53.8303 41.1838C53.0979 42.2785 52.2368 43.0794 51.4056 43.4909H53.3038C53.4715 43.4909 53.5588 43.7561 53.4453 43.9204C52.7156 44.9749 51.8913 45.7554 51.0917 46.1817H53.2054C53.369 46.1817 53.4586 46.4354 53.3538 46.6011C52.8809 47.3511 52.3694 47.9885 51.8475 48.4925C51.7989 48.4288 51.7508 48.3635 51.7034 48.2964C51.6699 48.249 51.6367 48.2008 51.6039 48.1517C51.1761 47.5124 50.8778 46.8327 50.7098 46.2007C50.6858 46.1104 50.6645 46.021 50.6458 45.9329C50.4961 46.6377 50.1763 47.421 49.6873 48.1517C49.1624 48.9362 48.5455 49.5102 47.9496 49.8048H49.3098C49.4303 49.8048 49.4927 49.9949 49.4112 50.1128C48.8886 50.8682 48.2975 51.4276 47.725 51.7332H49.2392C49.3566 51.7332 49.4209 51.9147 49.3457 52.0338C49.3094 52.0914 49.2727 52.148 49.2358 52.2038L47.9172 52.847C47.8696 52.7846 47.8225 52.7206 47.7762 52.655C47.7427 52.6076 47.7095 52.5594 47.6767 52.5103C47.2488 51.871 46.9505 51.1913 46.7826 50.5593C46.7586 50.469 46.7372 50.3796 46.7186 50.2915C46.5688 50.9963 46.2491 51.7796 45.76 52.5103C45.7272 52.5593 45.6941 52.6075 45.6606 52.6549C45.0057 51.6277 44.5438 50.5492 44.2761 49.5415C44.2351 49.3874 44.1987 49.2349 44.1669 49.0845C43.9113 50.2875 43.3654 51.6246 42.5307 52.8718C42.4026 53.0633 42.2713 53.2474 42.1374 53.4238C41.8313 53.0884 41.5329 52.6944 41.2521 52.249C41.1711 52.1208 41.2404 51.9246 41.3669 51.9246H43.0016C42.3833 51.5953 41.7457 50.9917 41.1814 50.1758C41.0936 50.0487 41.1611 49.8436 41.2908 49.8436H42.7589C42.116 49.5257 41.4501 48.9064 40.8836 48.0594C40.3555 47.2703 40.0105 46.4255 39.8491 45.6647C39.6878 46.4255 39.3427 47.2703 38.8146 48.0594C38.631 48.3338 38.437 48.5843 38.2366 48.8085C37.6269 48.2626 37.0258 47.5376 36.4756 46.6647C36.3675 46.4939 36.4599 46.2323 36.6286 46.2323H38.8081C37.9837 45.7932 37.1337 44.9885 36.3813 43.9007C36.2643 43.7313 36.3543 43.4578 36.5272 43.4578H38.4845C37.6274 43.0339 36.7395 42.2082 35.9842 41.0789C35.2802 40.027 34.8201 38.9006 34.605 37.8863C34.3899 38.9006 33.9299 40.027 33.2258 41.0789C32.4706 42.2077 31.5827 43.0335 30.7256 43.4578H32.6828C32.8558 43.4578 32.9458 43.7313 32.8288 43.9007C32.0764 44.988 31.2264 45.7927 30.402 46.2323H32.5815C32.7501 46.2323 32.8425 46.4939 32.7345 46.6647C32.0979 47.6743 31.3936 48.486 30.6862 49.0519C30.1757 48.1684 29.8306 47.2559 29.6512 46.4191L29.6477 46.4023C29.4318 47.4207 28.9698 48.5525 28.2626 49.6083C27.5042 50.7419 26.6128 51.5712 25.7518 51.997H27.7172C27.8913 51.997 27.9815 52.2717 27.8637 52.442C27.3281 53.2162 26.743 53.848 26.1526 54.3074C26.1107 54.251 26.0691 54.1934 26.0279 54.1348C25.9934 54.0856 25.9592 54.0357 25.9253 53.985C25.853 53.8771 25.7839 53.7682 25.7179 53.6587C25.2596 52.8981 24.9524 52.1052 24.7968 51.3815C24.7956 51.3758 24.7944 51.3701 24.7932 51.3644C24.6168 52.1968 24.2391 53.122 23.6611 53.985C23.0412 54.9115 22.3126 55.5894 21.6088 55.9374H23.2153C23.3576 55.9374 23.4313 56.1619 23.335 56.3011C22.7179 57.1934 22.0201 57.8541 21.3435 58.215H23.1324C23.2705 58.215 23.3465 58.4294 23.2581 58.57C22.7071 59.4431 22.0948 60.1361 21.483 60.6025C21.3056 60.4145 21.1319 60.2037 20.9648 59.9721C20.937 59.9337 20.9095 59.8947 20.8821 59.8552C20.8724 59.8411 20.8648 59.8259 20.8592 59.8102C20.82 59.6999 20.8783 59.5606 20.9791 59.5606H22.2801C22.2089 59.5254 22.1373 59.4861 22.0657 59.4427C21.5954 59.1578 21.1207 58.6984 20.7012 58.1009C20.675 58.0635 20.649 58.0256 20.6232 57.9871L20.618 57.9794C20.2084 57.3679 19.9231 56.7178 19.7624 56.1132C19.7395 56.0268 19.7191 55.9414 19.7012 55.8572C19.5583 56.5313 19.2525 57.2805 18.7844 57.9794C18.2823 58.7298 17.6922 59.2788 17.1223 59.5606H18.4233C18.5386 59.5606 18.5982 59.7425 18.5203 59.8552C18.0205 60.5778 17.4554 61.1129 16.9074 61.4052H18.3562C18.4681 61.4052 18.5296 61.5788 18.458 61.6927C17.9015 62.5746 17.2677 63.2295 16.6538 63.5846H18.2734C18.3826 63.5846 18.4446 63.7511 18.3785 63.8664C18.0308 64.4732 17.6541 64.994 17.2685 65.4117L0 69L31.7508 0Z" fill="#0A171B"/>
<path d="M31.946 50.7639L32.197 50.6236C32.3391 50.4032 32.4788 50.1736 32.6156 49.9352C32.7146 49.7614 32.6213 49.5113 32.4568 49.5113H30.9685C30.9789 49.5273 30.9894 49.5432 30.9999 49.5592C31.0108 49.5756 31.0217 49.592 31.0327 49.6083C31.0801 49.6792 31.128 49.7489 31.1764 49.8174C31.4223 50.1653 31.6806 50.4819 31.946 50.7639Z" fill="#0A171B"/>
</svg>
