<svg width="74" height="59" viewBox="0 0 74 59" fill="none" xmlns="http://www.w3.org/2000/svg">
<path d="M27.3204 0L40.8375 22.4189L50.2593 8.11322L74 43.7196L56.8135 47.2685C56.6197 47.0631 56.4306 46.8295 56.2503 46.5705C56.1758 46.4634 56.2328 46.2907 56.343 46.2907H57.5864C57.0757 46.0401 56.5482 45.5662 56.0889 44.9205C56.0582 44.8774 56.0279 44.8336 55.9979 44.7891C55.5514 44.1266 55.2593 43.4164 55.1225 42.7771L55.1217 42.7736C54.9852 43.4138 54.6929 44.1253 54.2455 44.7891C53.9713 45.1964 53.6696 45.5412 53.3597 45.8118C53.0952 45.5348 52.8364 45.2073 52.5916 44.8355C52.5663 44.797 52.5412 44.7581 52.5162 44.7187C52.4461 44.6081 52.5063 44.4393 52.6158 44.4393H54.0328C53.4969 44.1555 52.9445 43.6354 52.4553 42.9327C52.379 42.8232 52.4374 42.6464 52.5501 42.6464H53.8227C53.3 42.3899 52.7601 41.9049 52.29 41.244C52.2587 41.1999 52.2276 41.1551 52.1969 41.1095C51.7399 40.4314 51.441 39.7045 51.3009 39.0502L51.3009 39.0499L51.3002 39.0466C51.1604 39.7019 50.8613 40.4302 50.4034 41.1095C50.3446 41.1968 50.2846 41.2813 50.2235 41.363C49.8105 40.9492 49.4066 40.4393 49.0311 39.8473C48.9409 39.7056 49.018 39.4887 49.1588 39.4887H50.9776C50.2896 39.1245 49.5803 38.4572 48.9524 37.5552C48.8547 37.4146 48.9299 37.1878 49.0742 37.1878H50.7075C49.9923 36.8364 49.2513 36.1516 48.6211 35.2151C48.0335 34.3428 47.6496 33.4086 47.4701 32.5675C47.2906 33.4086 46.9067 34.3428 46.3191 35.2151C45.6889 36.1512 44.9479 36.836 44.2327 37.1878H45.866C46.0103 37.1878 46.0855 37.4146 45.9878 37.5552C45.3599 38.4568 44.6506 39.1241 43.9626 39.4887H45.7814C45.9222 39.4887 45.9993 39.7056 45.9091 39.8473C45.5022 40.4886 45.062 41.0337 44.613 41.4646C44.5711 41.4102 44.5298 41.3543 44.489 41.2969C44.4602 41.2564 44.4316 41.2152 44.4034 41.1732C44.0352 40.6265 43.7785 40.0454 43.634 39.5049C43.6134 39.4277 43.595 39.3513 43.5789 39.276C43.4501 39.8786 43.175 40.5484 42.7542 41.1732C42.3025 41.844 41.7717 42.3348 41.259 42.5867H42.4294C42.5331 42.5867 42.5867 42.7493 42.5166 42.8501C42.067 43.496 41.5583 43.9743 41.0657 44.2357H42.3686C42.4696 44.2357 42.525 44.3909 42.4602 44.4926C42.429 44.5419 42.3975 44.5904 42.3657 44.638L41.231 45.188C41.1901 45.1347 41.1496 45.0799 41.1097 45.0238C41.0809 44.9833 41.0524 44.9421 41.0241 44.9001C40.656 44.3534 40.3993 43.7723 40.2548 43.2318C40.2341 43.1546 40.2158 43.0782 40.1997 43.0029C40.0708 43.6055 39.7957 44.2753 39.3749 44.9001C39.3467 44.942 39.3182 44.9833 39.2893 45.0238C38.7258 44.1454 38.3284 43.2232 38.098 42.3616C38.0628 42.2298 38.0315 42.0994 38.004 41.9708C37.7841 42.9995 37.3144 44.1428 36.5962 45.2093C36.486 45.3729 36.373 45.5304 36.2578 45.6812C35.9944 45.3944 35.7376 45.0575 35.496 44.6767C35.4263 44.5671 35.4859 44.3993 35.5948 44.3993H37.0014C36.4693 44.1177 35.9207 43.6016 35.4352 42.904C35.3596 42.7953 35.4177 42.6199 35.5293 42.6199H36.7925C36.2394 42.3481 35.6663 41.8185 35.1789 41.0942C34.7245 40.4196 34.4276 39.6971 34.2888 39.0466C34.15 39.6971 33.853 40.4196 33.3986 41.0942C33.2407 41.3289 33.0737 41.5431 32.9013 41.7348C32.3766 41.268 31.8594 40.6481 31.386 39.9017C31.293 39.7556 31.3725 39.532 31.5176 39.532H33.393C32.6836 39.1565 31.9522 38.4684 31.3048 37.5383C31.2041 37.3934 31.2816 37.1595 31.4304 37.1595H33.1145C32.377 36.7971 31.613 36.0911 30.9632 35.1255C30.3574 34.226 29.9615 33.2628 29.7764 32.3955C29.5913 33.2628 29.1955 34.226 28.5897 35.1255C27.9398 36.0907 27.1758 36.7967 26.4383 37.1595H28.1225C28.2713 37.1595 28.3487 37.3934 28.248 37.5383C27.6006 38.468 26.8692 39.1561 26.1599 39.532H28.0352C28.1803 39.532 28.2598 39.7556 28.1669 39.9017C27.6191 40.7649 27.0131 41.459 26.4044 41.9429C25.9652 41.1875 25.6682 40.4072 25.5138 39.6917L25.5108 39.6774C25.3251 40.5481 24.9275 41.5159 24.319 42.4187C23.6664 43.388 22.8994 44.0971 22.1585 44.4612H23.8497C23.9995 44.4612 24.0771 44.6961 23.9757 44.8417C23.5149 45.5037 23.0114 46.0439 22.5034 46.4368C22.4673 46.3885 22.4315 46.3393 22.3961 46.2892C22.3664 46.2471 22.337 46.2044 22.3078 46.1611C22.2456 46.0688 22.1862 45.9757 22.1294 45.8821C21.735 45.2317 21.4706 44.5538 21.3368 43.9349C21.3358 43.93 21.3347 43.9252 21.3337 43.9203C21.1819 44.632 20.8569 45.4231 20.3596 46.1611C19.8261 46.9533 19.1992 47.533 18.5936 47.8305H19.9759C20.0984 47.8305 20.1618 48.0225 20.079 48.1415C19.5479 48.9045 18.9475 49.4694 18.3654 49.7781H19.9046C20.0235 49.7781 20.0889 49.9614 20.0128 50.0816C19.5387 50.8282 19.0118 51.4207 18.4853 51.8195C18.3328 51.6587 18.1833 51.4785 18.0394 51.2805C18.0156 51.2477 17.9919 51.2143 17.9683 51.1805C17.96 51.1685 17.9534 51.1555 17.9486 51.142C17.9148 51.0477 17.965 50.9286 18.0518 50.9286H19.1713C19.11 50.8986 19.0484 50.8649 18.9867 50.8278C18.5821 50.5842 18.1736 50.1914 17.8127 49.6804C17.7901 49.6485 17.7677 49.6161 17.7455 49.5832L17.7411 49.5766C17.3887 49.0537 17.1431 48.4978 17.0049 47.9809C16.9851 47.907 16.9676 47.834 16.9522 47.7619C16.8293 48.3383 16.5661 48.979 16.1633 49.5766C15.7313 50.2182 15.2235 50.6877 14.7331 50.9286H15.8526C15.9518 50.9286 16.0031 51.0841 15.9361 51.1805C15.506 51.7984 15.0197 52.2559 14.5483 52.5059H15.7948C15.8911 52.5059 15.9441 52.6543 15.8825 52.7517C15.4036 53.5058 14.8583 54.0658 14.33 54.3694H15.7236C15.8176 54.3694 15.8709 54.5118 15.8141 54.6104C15.5149 55.1292 15.1907 55.5746 14.859 55.9318L0 59L27.3204 0Z" fill="#24E5FF"/>
<path d="M27.4884 43.4068L27.7044 43.2868C27.8267 43.0984 27.9469 42.9021 28.0646 42.6982C28.1498 42.5496 28.0695 42.3358 27.928 42.3358H26.6473C26.6563 42.3494 26.6653 42.3631 26.6744 42.3767C26.6837 42.3907 26.6931 42.4047 26.7025 42.4187C26.7433 42.4793 26.7846 42.5389 26.8262 42.5975C27.0378 42.895 27.26 43.1657 27.4884 43.4068Z" fill="#24E5FF"/>
</svg>
