<svg width="231" height="114" viewBox="0 0 231 114" fill="none" xmlns="http://www.w3.org/2000/svg">
<path d="M28.0625 52.9247C44.5753 52.9247 54.3509 42.3565 54.3509 26.7685C54.3509 11.1804 44.5753 0.612216 28.0625 0.612216C11.5497 0.612216 1.77415 11.1804 1.77415 26.7685C1.77415 42.3565 11.5497 52.9247 28.0625 52.9247ZM28.1946 39.4503C23.3068 39.4503 20.4006 34.5955 20.4006 26.6364C20.4006 18.6772 23.3068 13.8224 28.1946 13.8224C32.8182 13.8224 35.7244 18.6772 35.7244 26.6364C35.7244 34.5955 32.8182 39.4503 28.1946 39.4503ZM94.642 29.8068C94.6751 34.8267 91.7688 37.8651 87.2443 37.8651C82.6538 37.8651 80.0117 34.8267 79.9787 29.8068V1.27273H61.7486V33.6378C61.7816 44.7344 68.783 52.6605 79.4503 52.6605C87.0131 52.6605 92.8256 48.8295 95.0384 42.3565H95.5668V52H112.872V1.27273H94.642V29.8068ZM122.144 52H140.374V25.5795C140.374 19.767 144.37 15.9361 149.753 15.9361C151.636 15.9361 154.674 16.2333 156.491 16.8608V1.30575C155.038 0.876418 153.452 0.612216 151.867 0.612216C146.451 0.612216 142.224 3.78267 140.374 10.9162H139.846V1.27273H122.144V52ZM33.875 62.2727H25.1562V50.1193H6.92614V62.2727H0.453125V75.483H6.92614V98.4027C6.79403 109.037 13.3661 114.42 25.9489 113.727C30.0771 113.495 33.1484 112.637 34.7997 112.141L32.1577 99.3274C31.4641 99.4925 29.6808 99.8558 28.5909 99.8558C26.2131 99.8558 25.1562 98.799 25.1562 96.6854V75.483H33.875V62.2727ZM65.0759 113.925C79.1448 113.925 88.1938 107.188 89.9111 96.6193H73.2662C72.2094 99.4925 69.2041 101.111 65.4722 101.111C60.056 101.111 56.8856 97.544 56.8856 92.6562V91.8636H89.9111V87.6364C89.9111 71.4869 80.0035 61.6122 64.6796 61.6122C48.9594 61.6122 38.9197 72.0483 38.9197 87.7685C38.9197 104.182 48.8273 113.925 65.0759 113.925ZM56.8856 81.8239C56.9846 77.4315 60.6175 74.4261 65.0759 74.4261C69.6004 74.4261 73.0351 77.4645 73.1341 81.8239H56.8856ZM111.485 113.793C118.09 113.793 123.077 111.547 126.148 105.866H126.545V113H143.586V78.2571C143.586 68.8778 134.702 61.6122 120.204 61.6122C105.045 61.6122 97.5813 69.5384 96.9538 78.7855H113.731C114.16 75.6481 116.472 74.1619 119.94 74.1619C123.11 74.1619 125.356 75.6151 125.356 78.2571V78.3892C125.356 81.3285 122.119 82.2532 113.599 82.8807C103.13 83.6403 94.9723 87.8675 94.9723 98.9972C94.9723 109.103 101.776 113.793 111.485 113.793ZM117.43 102.3C114.325 102.3 112.146 100.781 112.146 97.9403C112.146 95.3313 113.995 93.3168 118.222 92.6562C121.129 92.1939 123.572 91.5994 125.488 90.8068V95.0341C125.488 99.6577 121.558 102.3 117.43 102.3ZM152.296 113H170.527V83.4091C170.527 78.9837 172.838 76.2756 176.603 76.2756C180.368 76.2756 182.812 78.9837 182.812 83.4091V113H200.25V83.4091C200.25 78.9837 202.561 76.2756 206.326 76.2756C210.091 76.2756 212.535 78.9837 212.535 83.4091V113H230.765V78.7855C230.765 68.3825 224.094 61.6122 214.385 61.6122C206.855 61.6122 200.778 65.7074 199.061 71.9162H198.532C197.475 65.7074 191.795 61.6122 184.661 61.6122C177.627 61.6122 172.244 65.5753 170.13 71.9162H169.602V62.2727H152.296V113Z" fill="#24E5FF"/>
</svg>
