<svg width="73" height="43" viewBox="0 0 73 43" fill="none" xmlns="http://www.w3.org/2000/svg">
<path d="M34.7411 3.43327C31.5481 1.06051 27.1424 0 22.1063 0H0L6.28174 8.83072H21.4664C24.4755 8.83072 26.7815 9.30468 28.2753 10.197C29.623 11.0021 30.4205 12.1998 30.4205 14.2082C30.4205 16.4757 29.6042 17.7678 28.3041 18.614C26.8582 19.5551 24.5957 20.0801 21.5062 20.1641H14.2426L30.2952 43H42.2987L30.9956 27.1642C33.8268 26.1519 35.9606 24.5528 37.4224 22.4713C39.1271 20.0442 39.794 17.1386 39.794 14.1445C39.794 9.51943 38.0163 5.86711 34.7411 3.43327Z" fill="#0041FF"/>
<path d="M67.1866 2.86395C64.2376 0.847209 60.26 0 55.2777 0H36.9468L43.2285 8.83072H54.6379C57.7106 8.83072 59.4797 9.26662 60.6014 9.88152C61.6107 10.4348 62.3099 11.2312 62.8875 12.9798C63.3553 14.3959 63.5033 17.5892 61.7277 20.0264C58.7378 24.1305 55.3527 28.2159 51.2992 33.1078C49.5576 35.2096 47.6926 37.4604 45.6826 39.9254L43.1757 43H56.162L56.7305 42.3047C57.395 41.4922 58.0432 40.7026 58.6781 39.9294L58.6822 39.9244C62.7845 34.9279 66.3289 30.6108 70.09 25.1631C73.1759 20.6933 73.412 16.1959 72.6019 11.902C71.87 8.02238 70.2038 4.92728 67.1866 2.86395Z" fill="#0041FF"/>
</svg>
