<svg width="46" height="43" viewBox="0 0 46 43" fill="none" xmlns="http://www.w3.org/2000/svg">
<path fill-rule="evenodd" clip-rule="evenodd" d="M42.4669 21.7306C40.0565 23.3143 37.172 24.2355 34.0723 24.2355C25.6181 24.2355 18.7645 17.382 18.7645 8.92769C18.7645 5.82801 19.6858 2.94351 21.2695 0.533081C21.2575 0.533061 21.2455 0.533051 21.2335 0.533051C9.50655 0.533051 0 10.0396 0 21.7665C0 33.4934 9.50655 43 21.2335 43C32.9604 43 42.4669 33.4934 42.4669 21.7665C42.4669 21.7545 42.4669 21.7426 42.4669 21.7306Z" fill="#40EC88"/>
<path d="M28.9815 5.74986C28.9815 6.03364 29.1779 6.3081 29.5286 6.50814C29.8934 6.71283 30.3656 6.82913 30.866 6.82913C32.0162 6.82913 32.727 6.26624 32.727 5.37305C32.727 4.67991 32.3295 4.26588 31.4738 4.06119L30.562 3.84255C30.071 3.7216 29.8419 3.5076 29.8419 3.15405C29.8419 2.70281 30.2113 2.42834 30.8145 2.42834C31.2447 2.42834 31.5299 2.56325 31.8573 2.91215C32.0536 3.11218 32.1285 3.1587 32.2734 3.1587C32.4792 3.1587 32.6148 3.0331 32.6148 2.82841C32.6148 2.58651 32.4324 2.32135 32.1378 2.12596C31.7918 1.89801 31.3382 1.77241 30.8472 1.77241C29.7531 1.77241 29.0517 2.3353 29.0517 3.20522C29.0517 3.89372 29.4632 4.3217 30.3189 4.51709L31.2541 4.73108C31.6842 4.83342 31.9367 5.09393 31.9367 5.43818C31.9367 5.88942 31.5393 6.1732 30.908 6.1732C30.4077 6.1732 30.0243 6.00107 29.725 5.65682C29.5614 5.45679 29.4632 5.39166 29.3322 5.39166C29.1171 5.39166 28.9815 5.52657 28.9815 5.74986Z" fill="white"/>
<path d="M36.6407 6.09411H36.6735V6.36858C36.6828 6.63374 36.8231 6.79191 37.0616 6.79191C37.3094 6.79191 37.4544 6.62909 37.4544 6.34997V3.40061C37.4544 2.35391 36.7997 1.77706 35.6167 1.77706C35.1351 1.77706 34.7657 1.86545 34.4805 2.02827C34.0877 2.25157 33.896 2.52138 33.896 2.79585C33.896 2.98658 34.0222 3.11218 34.2093 3.11218C34.3542 3.11218 34.4618 3.06566 34.574 2.93541C34.8686 2.60046 35.1491 2.45625 35.5653 2.45625C36.2713 2.45625 36.6501 2.77724 36.6501 3.40526V3.87976H35.3502C34.27 3.87976 33.6201 4.43335 33.6201 5.32188C33.6201 6.21972 34.2654 6.82448 35.2239 6.82448C35.8458 6.82448 36.3462 6.56862 36.6407 6.09411ZM34.4431 5.30327C34.4431 4.80551 34.7891 4.52639 35.3923 4.52639H36.6501V5.07998C36.6501 5.68939 36.1217 6.15459 35.4437 6.15459C34.8452 6.15459 34.4431 5.81034 34.4431 5.30327Z" fill="white"/>
<path d="M39.9373 6.34532V2.53068H40.6247C40.8538 2.53068 40.9987 2.40508 40.9987 2.19574C40.9987 1.9864 40.8538 1.8608 40.6247 1.8608H39.9326V1.34443C39.9326 0.893183 40.1103 0.679191 40.4703 0.679191C40.6948 0.679191 40.7322 0.716407 40.9286 0.716407C41.1156 0.716407 41.2278 0.600107 41.2278 0.414027C41.2278 0.30238 41.1764 0.213992 41.0829 0.13956C40.966 0.0511719 40.7696 0 40.5171 0C39.5913 0 39.133 0.451243 39.133 1.38164V1.8608H38.7262C38.4924 1.8608 38.3521 1.98175 38.3521 2.19574C38.3521 2.40508 38.4971 2.53068 38.7262 2.53068H39.133V6.34532C39.133 6.62444 39.2827 6.79191 39.5305 6.79191C39.783 6.79191 39.9373 6.62444 39.9373 6.34532Z" fill="white"/>
<path d="M41.7936 4.69386C41.7936 6.01503 42.6073 6.82913 43.9259 6.82913C44.5852 6.82913 45.1837 6.62444 45.4923 6.29415C45.6326 6.14994 45.7214 5.97316 45.7214 5.82895C45.7214 5.63356 45.5858 5.48935 45.4081 5.48935C45.2725 5.48935 45.2164 5.52657 44.9639 5.75917C44.7021 6.01038 44.3794 6.13598 43.9633 6.13598C43.1216 6.13598 42.6119 5.60565 42.6073 4.75899V4.50313H45.4035C45.7495 4.50313 45.843 4.35427 45.843 3.82394C45.843 2.62372 45.02 1.77241 43.8464 1.77241C42.6353 1.77241 41.7936 2.65629 41.7936 3.92163V4.69386ZM42.6073 3.85185V3.8379C42.6073 3.01914 43.1123 2.4609 43.8557 2.4609C44.5805 2.4609 45.0434 2.99588 45.0434 3.8379V3.85185H42.6073Z" fill="white"/>
<path d="M30.3703 15.8726V12.058H31.0577C31.2868 12.058 31.4317 11.9324 31.4317 11.723C31.4317 11.5137 31.2868 11.3881 31.0577 11.3881H30.3656V10.8717C30.3656 10.4205 30.5433 10.2065 30.9034 10.2065C31.1278 10.2065 31.1652 10.2437 31.3616 10.2437C31.5486 10.2437 31.6609 10.1274 31.6609 9.94131C31.6609 9.82966 31.6094 9.74128 31.5159 9.66684C31.399 9.57846 31.2026 9.52728 30.9501 9.52728C30.0243 9.52728 29.566 9.97853 29.566 10.9089V11.3881H29.1592C28.9254 11.3881 28.7852 11.509 28.7852 11.723C28.7852 11.9324 28.9301 12.058 29.1592 12.058H29.566V15.8726C29.566 16.1517 29.7157 16.3192 29.9635 16.3192C30.216 16.3192 30.3703 16.1517 30.3703 15.8726Z" fill="white"/>
<path d="M32.4604 10.16C32.4604 10.453 32.6896 10.6717 32.9701 10.6717C33.2741 10.6717 33.4985 10.453 33.4985 10.16C33.4985 9.86688 33.2741 9.65754 32.9701 9.65754C32.6896 9.65754 32.4604 9.86688 32.4604 10.16ZM33.3769 15.8726V11.7835C33.3769 11.4858 33.2086 11.3369 32.9795 11.3369C32.7504 11.3369 32.5727 11.4811 32.5727 11.7835V15.8726C32.5727 16.1703 32.7457 16.3192 32.9748 16.3192C33.2039 16.3192 33.3769 16.175 33.3769 15.8726Z" fill="white"/>
<path d="M35.1585 14.9748C35.1585 15.9936 35.4998 16.3471 36.3882 16.3471C36.6548 16.3471 36.8371 16.3145 36.9681 16.2494C37.113 16.1796 37.1738 16.0726 37.1738 15.9424C37.1738 15.761 37.0476 15.6447 36.8652 15.6447C36.7763 15.6447 36.6828 15.6586 36.5519 15.6586C36.0983 15.6586 35.9674 15.5051 35.9674 14.9841V12.0626H36.622C36.8512 12.0626 36.9961 11.937 36.9961 11.7277C36.9961 11.5183 36.8558 11.3881 36.622 11.3881H35.9627V10.5833C35.9627 10.3042 35.8131 10.1413 35.5606 10.1413C35.3128 10.1413 35.1631 10.3042 35.1631 10.5833V11.3881H34.8031C34.5693 11.3881 34.429 11.5183 34.429 11.7277C34.429 11.937 34.574 12.0626 34.8031 12.0626H35.1585V14.9748Z" fill="white"/>
</svg>
