<svg width="256" height="125" viewBox="0 0 256 125" fill="none" xmlns="http://www.w3.org/2000/svg">
<path d="M62.199 58.5931H84.5487L92.6486 27.5644H93.2486L101.348 58.5931H123.698L138.098 0.753123H117.398L111.098 35.6981H110.648L102.998 0.753123H82.8987L75.5488 35.9994H75.0988L68.4989 0.753123H47.7991L62.199 58.5931Z" fill="#24E5FF"/>
<path d="M167.499 59.6475C183.474 59.6475 193.749 51.9656 195.699 39.9156H176.799C175.599 43.1917 172.186 45.0369 167.949 45.0369C161.799 45.0369 158.199 40.97 158.199 35.3969V34.4931H195.699V29.6731C195.699 11.2592 184.449 0 167.049 0C149.199 0 137.799 11.8994 137.799 29.8238C137.799 48.5389 149.049 59.6475 167.499 59.6475ZM158.199 23.0456C158.312 18.0373 162.437 14.6106 167.499 14.6106C172.636 14.6106 176.536 18.075 176.649 23.0456H158.199Z" fill="#24E5FF"/>
<path d="M29.8496 125C46.9119 125 57.3743 115.172 57.5993 99.8456H38.3995C37.9495 105.908 34.6871 109.184 30.1496 109.184C24.7122 109.184 21.1497 104.515 21.1497 95.0256C21.1497 85.5363 24.7122 80.8669 30.1496 80.8669C34.7246 80.8669 37.837 84.143 38.3995 90.2056H57.5993C57.4868 75.1431 46.7994 65.3525 29.8496 65.3525C11.0999 65.3525 0 77.4025 0 95.1763C0 112.95 11.0999 125 29.8496 125Z" fill="#24E5FF"/>
<path d="M93.8895 125C112.639 125 123.739 112.95 123.739 95.1763C123.739 77.4025 112.639 65.3525 93.8895 65.3525C75.1397 65.3525 64.0398 77.4025 64.0398 95.1763C64.0398 112.95 75.1397 125 93.8895 125ZM94.0395 109.636C88.4895 109.636 85.1896 104.101 85.1896 95.0256C85.1896 85.9505 88.4895 80.415 94.0395 80.415C99.2894 80.415 102.589 85.9505 102.589 95.0256C102.589 104.101 99.2894 109.636 94.0395 109.636Z" fill="#24E5FF"/>
<path d="M152.989 124.699C161.089 124.699 166.639 120.331 169.039 114.456H169.489V123.946H190.038V56.5893C190.038 56.5893 186.569 59.8034 180.568 61.6782C174.567 63.5531 169.339 63.4316 169.339 63.4316V76.1975H169.039C166.789 70.3231 161.389 65.3525 152.839 65.3525C141.439 65.3525 130.339 74.0888 130.339 95.0256C130.339 115.059 140.689 124.699 152.989 124.699ZM160.639 108.733C154.939 108.733 151.639 103.611 151.639 95.0256C151.639 86.44 154.939 81.3188 160.639 81.3188C166.339 81.3188 169.789 86.44 169.789 95.0256C169.789 103.461 166.339 108.733 160.639 108.733Z" fill="#24E5FF"/>
<path d="M227.8 125C243.775 125 254.05 117.318 256 105.268H237.1C235.9 108.544 232.488 110.389 228.25 110.389C222.1 110.389 218.5 106.323 218.5 100.749V99.8456H256V95.0256C256 76.6117 244.75 65.3525 227.35 65.3525C209.501 65.3525 198.101 77.2519 198.101 95.1763C198.101 113.891 209.351 125 227.8 125ZM218.5 88.3981C218.613 83.3898 222.738 79.9631 227.8 79.9631C232.938 79.9631 236.838 83.4275 236.95 88.3981H218.5Z" fill="#24E5FF"/>
</svg>
