<svg width="326" height="131" viewBox="0 0 326 131" fill="none" xmlns="http://www.w3.org/2000/svg">
<path d="M13.6065 68H33.2898L40.4233 40.7869H40.9517L48.0852 68H67.7685L80.4503 17.2727H62.2202L56.6719 47.9205H56.2756L49.5384 17.2727H31.8366L25.3636 48.1847H24.9673L19.1548 17.2727H0.924716L13.6065 68ZM104.229 39.4659C104.262 34.446 107.168 31.4077 111.626 31.4077C116.283 31.4077 118.925 34.446 118.892 39.4659V68H137.122V35.6349C137.155 24.5384 130.154 16.6122 119.42 16.6122C111.924 16.6122 106.375 20.4432 104.097 26.9162H103.568V0.363634H85.9986V68H104.229V39.4659ZM160.257 68.7926C166.862 68.7926 171.849 66.5469 174.92 60.8665H175.316V68H192.357V33.2571C192.357 23.8778 183.474 16.6122 168.975 16.6122C153.817 16.6122 146.353 24.5384 145.725 33.7855H162.502C162.932 30.6481 165.243 29.1619 168.711 29.1619C171.882 29.1619 174.127 30.6151 174.127 33.2571V33.3892C174.127 36.3285 170.891 37.2532 162.37 37.8807C151.901 38.6403 143.744 42.8675 143.744 53.9972C143.744 64.103 150.547 68.7926 160.257 68.7926ZM166.201 57.2997C163.097 57.2997 160.917 55.7805 160.917 52.9403C160.917 50.3313 162.767 48.3168 166.994 47.6562C169.9 47.1939 172.344 46.5994 174.259 45.8068V50.0341C174.259 54.6577 170.329 57.2997 166.201 57.2997ZM231.319 17.2727H222.601V5.11932H204.37V17.2727H197.897V30.483H204.37V53.4027C204.238 64.0369 210.81 69.4201 223.393 68.7266C227.521 68.4954 230.593 67.6367 232.244 67.1413L229.602 54.3274C228.908 54.4925 227.125 54.8558 226.035 54.8558C223.657 54.8558 222.601 53.799 222.601 51.6854V30.483H231.319V17.2727ZM13.6065 129H33.2898L40.4233 101.787H40.9517L48.0852 129H67.7685L80.4503 78.2727H62.2202L56.6719 108.92H56.2756L49.5384 78.2727H31.8366L25.3636 109.185H24.9673L19.1548 78.2727H0.924716L13.6065 129ZM109.397 129.925C123.466 129.925 132.515 123.188 134.232 112.619H117.588C116.531 115.493 113.525 117.111 109.794 117.111C104.377 117.111 101.207 113.544 101.207 108.656V107.864H134.232V103.636C134.232 87.4869 124.325 77.6122 109.001 77.6122C93.2807 77.6122 83.2409 88.0483 83.2409 103.768C83.2409 120.182 93.1486 129.925 109.397 129.925ZM101.207 97.8239C101.306 93.4315 104.939 90.4261 109.397 90.4261C113.922 90.4261 117.356 93.4645 117.455 97.8239H101.207ZM178.561 129.661C185.695 129.661 190.582 125.83 192.696 120.678H193.092V129H211.19V61.3636H192.96V87.1236H192.696C190.714 81.9716 185.959 77.6122 178.429 77.6122C168.389 77.6122 158.614 85.2741 158.614 103.636C158.614 121.206 167.729 129.661 178.561 129.661ZM185.298 115.658C180.278 115.658 177.372 111.166 177.372 103.636C177.372 96.1065 180.278 91.6151 185.298 91.6151C190.318 91.6151 193.356 96.1065 193.356 103.636C193.356 111.034 190.318 115.658 185.298 115.658ZM244.579 129.925C261.092 129.925 270.867 119.357 270.867 103.768C270.867 88.1804 261.092 77.6122 244.579 77.6122C228.066 77.6122 218.291 88.1804 218.291 103.768C218.291 119.357 228.066 129.925 244.579 129.925ZM244.711 116.45C239.823 116.45 236.917 111.596 236.917 103.636C236.917 95.6772 239.823 90.8224 244.711 90.8224C249.335 90.8224 252.241 95.6772 252.241 103.636C252.241 111.596 249.335 116.45 244.711 116.45ZM291.608 107.864H307.196V106.278C307.196 101.027 309.672 98.3853 314.461 95.5781C320.901 91.8132 325.294 87.0906 325.294 79.0653C325.294 66.6477 314.824 60.4389 300.723 60.4389C287.876 60.4389 277.208 66.5156 277.076 81.0469H293.985C293.985 77.2489 297.024 74.5739 300.59 74.5739C303.893 74.5739 306.535 76.8196 306.535 80.1222C306.535 83.821 303.332 86.0998 299.137 88.8409C294.217 92.0444 291.608 95.413 291.608 106.278V107.864ZM299.666 130.057C304.521 130.057 308.847 125.962 308.913 120.81C308.847 115.79 304.521 111.695 299.666 111.695C294.547 111.695 290.353 115.79 290.419 120.81C290.353 125.962 294.547 130.057 299.666 130.057Z" fill="#24E5FF"/>
</svg>
